<svg width="108" height="108" viewBox="0 0 108 108" fill="none" xmlns="http://www.w3.org/2000/svg">
<g opacity="0.4" filter="url(#filter0_d)">
<rect x="4" y="3" width="100" height="100" rx="10" fill="white"/>
</g>
<path d="M19.7494 74.52C20.6054 74.52 21.3374 74.816 21.9454 75.408C22.5534 76 22.8574 76.788 22.8574 77.772C22.8574 78.756 22.5534 79.556 21.9454 80.172C21.3454 80.788 20.6414 81.096 19.8334 81.096C19.0334 81.096 18.3134 80.744 17.6734 80.04V83.328H16.3294V74.616H17.6734V75.732C18.2014 74.924 18.8934 74.52 19.7494 74.52ZM17.6494 77.82C17.6494 78.428 17.8334 78.928 18.2014 79.32C18.5694 79.704 19.0174 79.896 19.5454 79.896C20.0734 79.896 20.5334 79.704 20.9254 79.32C21.3174 78.936 21.5134 78.44 21.5134 77.832C21.5134 77.216 21.3214 76.708 20.9374 76.308C20.5534 75.9 20.0934 75.696 19.5574 75.696C19.0214 75.696 18.5694 75.9 18.2014 76.308C17.8334 76.708 17.6494 77.212 17.6494 77.82ZM28.8559 78.072V74.616H30.1999V81H28.8559V79.836C28.6399 80.228 28.3399 80.536 27.9559 80.76C27.5799 80.984 27.1719 81.096 26.7319 81.096C26.0119 81.096 25.4279 80.876 24.9799 80.436C24.5399 79.996 24.3199 79.36 24.3199 78.528V74.616H25.6639V78.12C25.6639 79.296 26.1519 79.884 27.1279 79.884C27.5919 79.884 27.9959 79.732 28.3399 79.428C28.6839 79.116 28.8559 78.664 28.8559 78.072ZM31.9457 75.792V74.64H36.9377V75.852L33.3497 79.836H37.1297V81H31.7057V79.692L35.1977 75.792H31.9457ZM38.4379 75.792V74.64H43.4299V75.852L39.8419 79.836H43.6219V81H38.1979V79.692L41.6899 75.792H38.4379ZM46.4781 81H45.1341V72.096H46.4781V81ZM54.3671 78.396H49.3631C49.3951 78.86 49.6071 79.236 49.9991 79.524C50.3911 79.804 50.8391 79.944 51.3431 79.944C52.1431 79.944 52.7511 79.692 53.1671 79.188L53.9351 80.028C53.2471 80.74 52.3511 81.096 51.2471 81.096C50.3511 81.096 49.5871 80.8 48.9551 80.208C48.3311 79.608 48.0191 78.808 48.0191 77.808C48.0191 76.8 48.3391 76 48.9791 75.408C49.6191 74.816 50.3711 74.52 51.2351 74.52C52.1071 74.52 52.8471 74.784 53.4551 75.312C54.0631 75.832 54.3671 76.552 54.3671 77.472V78.396ZM49.3631 77.34H53.0231C53.0231 76.804 52.8551 76.392 52.5191 76.104C52.1831 75.816 51.7671 75.672 51.2711 75.672C50.7831 75.672 50.3431 75.824 49.9511 76.128C49.5591 76.424 49.3631 76.828 49.3631 77.34ZM65.042 74.616V80.184C65.042 81.312 64.734 82.156 64.118 82.716C63.51 83.284 62.726 83.568 61.766 83.568C60.806 83.568 59.938 83.268 59.162 82.668L59.798 81.648C60.422 82.12 61.05 82.356 61.682 82.356C62.322 82.356 62.826 82.192 63.194 81.864C63.57 81.536 63.758 81.012 63.758 80.292V79.476C63.558 79.852 63.27 80.152 62.894 80.376C62.526 80.6 62.11 80.712 61.646 80.712C60.798 80.712 60.102 80.416 59.558 79.824C59.014 79.232 58.742 78.496 58.742 77.616C58.742 76.736 59.014 76 59.558 75.408C60.102 74.816 60.794 74.52 61.634 74.52C62.482 74.52 63.17 74.868 63.698 75.564V74.616H65.042ZM60.062 77.568C60.062 78.088 60.222 78.54 60.542 78.924C60.87 79.3 61.306 79.488 61.85 79.488C62.402 79.488 62.846 79.304 63.182 78.936C63.526 78.568 63.698 78.112 63.698 77.568C63.698 77.016 63.526 76.552 63.182 76.176C62.838 75.792 62.394 75.6 61.85 75.6C61.306 75.6 60.87 75.796 60.542 76.188C60.222 76.58 60.062 77.04 60.062 77.568ZM72.1616 81H70.9376V80.148C70.4096 80.78 69.7016 81.096 68.8136 81.096C68.1496 81.096 67.5976 80.908 67.1576 80.532C66.7256 80.156 66.5096 79.656 66.5096 79.032C66.5096 78.4 66.7416 77.928 67.2056 77.616C67.6696 77.304 68.2976 77.148 69.0896 77.148H70.8296V76.908C70.8296 76.06 70.3576 75.636 69.4136 75.636C68.8216 75.636 68.2056 75.852 67.5656 76.284L66.9656 75.444C67.7416 74.828 68.6216 74.52 69.6056 74.52C70.3576 74.52 70.9696 74.712 71.4416 75.096C71.9216 75.472 72.1616 76.068 72.1616 76.884V81ZM70.8176 78.624V78.084H69.3056C68.3376 78.084 67.8536 78.388 67.8536 78.996C67.8536 79.308 67.9736 79.548 68.2136 79.716C68.4536 79.876 68.7856 79.956 69.2096 79.956C69.6416 79.956 70.0176 79.836 70.3376 79.596C70.6576 79.356 70.8176 79.032 70.8176 78.624ZM75.3765 77.544V81H74.0325V74.616H75.3765V75.78C75.5685 75.388 75.8565 75.08 76.2405 74.856C76.6325 74.632 77.0525 74.52 77.5005 74.52C78.5085 74.52 79.1925 74.936 79.5525 75.768C80.1845 74.936 80.9725 74.52 81.9165 74.52C82.6365 74.52 83.2165 74.74 83.6565 75.18C84.1045 75.62 84.3285 76.256 84.3285 77.088V81H82.9845V77.496C82.9845 76.32 82.4965 75.732 81.5205 75.732C81.0645 75.732 80.6645 75.88 80.3205 76.176C79.9845 76.464 79.8085 76.888 79.7925 77.448V81H78.4485V77.496C78.4485 76.888 78.3405 76.444 78.1245 76.164C77.9085 75.876 77.5685 75.732 77.1045 75.732C76.6405 75.732 76.2365 75.888 75.8925 76.2C75.5485 76.504 75.3765 76.952 75.3765 77.544ZM92.1366 78.396H87.1326C87.1646 78.86 87.3766 79.236 87.7686 79.524C88.1606 79.804 88.6086 79.944 89.1126 79.944C89.9126 79.944 90.5206 79.692 90.9366 79.188L91.7046 80.028C91.0166 80.74 90.1206 81.096 89.0166 81.096C88.1206 81.096 87.3566 80.8 86.7246 80.208C86.1006 79.608 85.7886 78.808 85.7886 77.808C85.7886 76.8 86.1086 76 86.7486 75.408C87.3886 74.816 88.1406 74.52 89.0046 74.52C89.8766 74.52 90.6166 74.784 91.2246 75.312C91.8326 75.832 92.1366 76.552 92.1366 77.472V78.396ZM87.1326 77.34H90.7926C90.7926 76.804 90.6246 76.392 90.2886 76.104C89.9526 75.816 89.5366 75.672 89.0406 75.672C88.5526 75.672 88.1126 75.824 87.7206 76.128C87.3286 76.424 87.1326 76.828 87.1326 77.34Z" fill="#2C2C2E"/>
<path d="M36.8018 63H44.0978V29.16H39.0578L29.4098 32.04L30.9458 38.088L36.8018 36.648V63ZM63.1478 63.576C70.8758 63.576 75.9158 59.064 75.9158 51.96C75.9158 44.28 70.6838 41.112 64.1558 41.112C62.2838 41.112 61.0838 41.352 59.7398 41.688L60.1238 35.88H74.4278V29.4H53.7878L52.8278 45.96L57.0998 48.792C58.6838 48.12 60.6038 47.544 62.7158 47.544C66.2198 47.544 68.6678 49.224 68.6678 52.104C68.6678 55.176 66.5078 56.856 63.0518 56.856C60.0758 56.856 57.5798 55.512 55.0358 53.208L50.5718 58.536C53.8358 61.656 57.7718 63.576 63.1478 63.576Z" fill="#2C2C2E"/>
<defs>
<filter id="filter0_d" x="0" y="0" width="108" height="108" filterUnits="userSpaceOnUse" color-interpolation-filters="sRGB">
<feFlood flood-opacity="0" result="BackgroundImageFix"/>
<feColorMatrix in="SourceAlpha" type="matrix" values="0 0 0 0 0 0 0 0 0 0 0 0 0 0 0 0 0 0 127 0"/>
<feOffset dy="1"/>
<feGaussianBlur stdDeviation="2"/>
<feColorMatrix type="matrix" values="0 0 0 0 0 0 0 0 0 0 0 0 0 0 0 0 0 0 0.25 0"/>
<feBlend mode="normal" in2="BackgroundImageFix" result="effect1_dropShadow"/>
<feBlend mode="normal" in="SourceGraphic" in2="effect1_dropShadow" result="shape"/>
</filter>
</defs>
</svg>

